{"title":"Agni Sakshi ( 1996 ) DvD - 2CD - Rip - AVC - x264 - 6 channels","uid":6604068,"size":1525172758,"categoryP":"video","categoryS":"movies_dvdr","magnet":"?xt=urn:btih:01c38e177e51452768e17921a673f68d1b98482c&amp;dn=Agni+Sakshi+%28+1996+%29+DvD+-+2CD+-+Rip+-+AVC+-+x264+-+6+channels&amp;tr=udp%3A%2F%2Ftracker.openbittorrent.com%3A80&amp;tr=udp%3A%2F%2Fopen.demonii.com%3A1337&amp;tr=udp%3A%2F%2Ftracker.coppersurfer.tk%3A6969&amp;tr=udp%3A%2F%2Fexodus.desync.com%3A6969","seeders":0,"leechers":2,"uploader":".Dude.","files":-1,"time":1313330554,"description":"Ripper                           : Rahul\nSource                           : Drc\nComplete name                    : Agni Sakshi ( 1996 )\nFormat                           : Matroska\nFile size                        : 1.42 GiB\nDuration                         : 2h 21mn\nOverall bit rate                 : 1 432 Kbps\nWriting library                  : libmkv 0.6.4.1\n\nVideo\nID                               : 1\nFormat                           : AVC\nFormat/Info                      : Advanced Video Codec\nFormat profile                   : &lt;a class=&quot;__cf_email__&quot; href=&quot;/cdn-cgi/l/email-protection&quot; data-cfemail=&quot;276f4e404f676b140917&quot;&gt;[email&amp;#160;protected]&lt;/a&gt;&lt;script cf-hash='f9e31' type=&quot;text/javascript&quot;&gt;\n/* &lt;![CDATA[ */!function(){try{var t=&quot;currentScript&quot;in document?document.currentScript:function(){for(var t=document.getElementsByTagName(&quot;script&quot;),e=t.length;e--;)if(t[e].getAttribute(&quot;cf-hash&quot;))return t[e]}();if(t&amp;&amp;t.previousSibling){var e,r,n,i,c=t.previousSibling,a=c.getAttribute(&quot;data-cfemail&quot;);if(a){for(e=&quot;&quot;,r=parseInt(a.substr(0,2),16),n=2;a.length-n;n+=2)i=parseInt(a.substr(n,2),16)^r,e+=String.fromCharCode(i);e=document.createTextNode(e),c.parentNode.replaceChild(e,c)}}}catch(u){}}();/* ]]&gt; */&lt;/script&gt;\nFormat settings, CABAC           : Yes\nFormat settings, ReFrames        : 4 frames\nFormat settings, GOP             : M=1, N=4\nCodec ID                         : V_MPEG4/ISO/AVC\nDuration                         : 2h 21mn\nBit rate                         : 956 Kbps\nNominal bit rate                 : 1 202 Kbps\nWidth                            : 720 pixels\nHeight                           : 384 pixels\nDisplay aspect ratio             : 1.875\nFrame rate                       : 23.976 fps\nColor space                      : YUV\nChroma subsampling               : 4:2:0\nBit depth                        : 8 bits\nScan type                        : Progressive\nBits/(Pixel*Frame)               : 0.144\nStream size                      : 971 MiB (67%)\nWriting library                  : x264 core 112\n\nAudio\nID                               : 2\nFormat                           : AC-3\nFormat/Info                      : Audio Coding 3\nMode extension                   : CM (complete main)\nCodec ID                         : A_AC3\nDuration                         : 2h 21mn\nBit rate mode                    : Constant\nBit rate                         : 448 Kbps\nChannel(s)                       : 6 channels\nChannel positions                : Front: L C R, Side: L R, LFE\nSampling rate                    : 48.0 KHz\nBit depth                        : 16 bits\nCompression mode                 : Lossy\nStream size                      : 455 MiB (31%)  \n\nScreens: &lt;a href=&quot;\nhttp://i887.photobucket.com/albums/ac76/desiess/Punjabi/1-35.jpg&quot; rel=&quot;nofollow&quot; target=&quot;_NEW&quot;&gt;\nhttp://i887.photobucket.com/albums/ac76/desiess/Punjabi/1-35.jpg&lt;/a&gt; &lt;a href=&quot;\nhttp://i887.photobucket.com/albums/ac76/desiess/Punjabi/2-35.jpg&quot; rel=&quot;nofollow&quot; target=&quot;_NEW&quot;&gt;\nhttp://i887.photobucket.com/albums/ac76/desiess/Punjabi/2-35.jpg&lt;/a&gt; &lt;a href=&quot;\nhttp://i887.photobucket.com/albums/ac76/desiess/Punjabi/3-36.jpg&quot; rel=&quot;nofollow&quot; target=&quot;_NEW&quot;&gt;\nhttp://i887.photobucket.com/albums/ac76/desiess/Punjabi/3-36.jpg&lt;/a&gt; &lt;a href=&quot;\nhttp://i887.photobucket.com/albums/ac76/desiess/Punjabi/4-34.jpg&quot; rel=&quot;nofollow&quot; target=&quot;_NEW&quot;&gt;\nhttp://i887.photobucket.com/albums/ac76/desiess/Punjabi/4-34.jpg&lt;/a&gt; &lt;a href=&quot;\nhttp://i887.photobucket.com/albums/ac76/desiess/Punjabi/5-35.jpg&quot; rel=&quot;nofollow&quot; target=&quot;_NEW&quot;&gt;\nhttp://i887.photobucket.com/albums/ac76/desiess/Punjabi/5-35.jpg&lt;/a&gt; &lt;a href=&quot;\nhttp://i887.photobucket.com/albums/ac76/desiess/Punjabi/5-35.jpg&quot; rel=&quot;nofollow&quot; target=&quot;_NEW&quot;&gt;\nhttp://i887.photobucket.com/albums/ac76/desiess/Punjabi/5-35.jpg&lt;/a&gt; &lt;a href=&quot;\nhttp://i887.photobucket.com/albums/ac76/desiess/Punjabi/7-33.jpg&quot; rel=&quot;nofollow&quot; target=&quot;_NEW&quot;&gt;\nhttp://i887.photobucket.com/albums/ac76/desiess/Punjabi/7-33.jpg&lt;/a&gt; &lt;a href=&quot;\nhttp://i887.photobucket.com/albums/ac76/desiess/Punjabi/9-24.jpg&quot; rel=&quot;nofollow&quot; target=&quot;_NEW&quot;&gt;\nhttp://i887.photobucket.com/albums/ac76/desiess/Punjabi/9-24.jpg&lt;/a&gt; &lt;a href=&quot;\nhttp://i887.photobucket.com/albums/ac76/desiess/Punjabi/10-19.jpg&quot; rel=&quot;nofollow&quot; target=&quot;_NEW&quot;&gt;\nhttp://i887.photobucket.com/albums/ac76/desiess/Punjabi/10-19.jpg&lt;/a&gt;\n\nCREDITS TO PNJABIBoY and team MTR\n\nSAmPLE:\n\n~ Seed 4 others,Others would seed 4 u ~\n         Be a Gentleman!!\n\n    ______            ______   _______    \n   (  __  \\\\ |\\\\     /|(  __  \\\\ (  ____ \\\\   \n   | (  \\\\  )| )   ( || (  \\\\  )| (    \\\\/   \n   | |   ) || |   | || |   ) || (__       \n   | |   | || |   | || |   | ||  __)      \n   | |   ) || |   | || |   ) || (         \n _ | (__/  )| (___) || (__/  )| (____/\\\\ _ \n(_)(______/ (_______)(______/ (_______/(_)\n\n\nA simple THANKS goes a long way... :-)\nAny comments would b appreciated.\n","torrent":{"xt":"urn:btih:01c38e177e51452768e17921a673f68d1b98482c","amp;dn":"Agni+Sakshi+%28+1996+%29+DvD+-+2CD+-+Rip+-+AVC+-+x264+-+6+channels","amp;tr":["udp%3A%2F%2Ftracker.openbittorrent.com%3A80","udp%3A%2F%2Fopen.demonii.com%3A1337","udp%3A%2F%2Ftracker.coppersurfer.tk%3A6969","udp%3A%2F%2Fexodus.desync.com%3A6969"],"infoHash":"01c38e177e51452768e17921a673f68d1b98482c","infoHashBuffer":{"type":"Buffer","data":[1,195,142,23,126,81,69,39,104,225,121,33,166,115,246,141,27,152,72,44]},"announce":[],"urlList":[]}}